{
    "accessors": [
        {
            "bufferView": 2,
            "componentType": 5126,
            "count": 898,
            "max": [38.16992950439453, 41.545806884765625, 43.92774963378906],
            "min": [
                -38.169925689697266, -40.590057373046875, -35.57602310180664
            ],
            "type": "VEC3"
        },
        {
            "bufferView": 2,
            "byteOffset": 10776,
            "componentType": 5126,
            "count": 898,
            "type": "VEC3"
        },
        {
            "bufferView": 1,
            "componentType": 5126,
            "count": 898,
            "type": "VEC2"
        },
        {
            "bufferView": 0,
            "componentType": 5125,
            "count": 4674,
            "type": "SCALAR"
        }
    ],
    "asset": {
        "generator": "fab-model-conversion",
        "version": "2.0"
    },
    "bufferViews": [
        {
            "buffer": 0,
            "byteLength": 18696,
            "target": 34963
        },
        {
            "buffer": 0,
            "byteLength": 7184,
            "byteOffset": 18696,
            "byteStride": 8,
            "target": 34962
        },
        {
            "buffer": 0,
            "byteLength": 21552,
            "byteOffset": 25880,
            "byteStride": 12,
            "target": 34962
        }
    ],
    "buffers": [
        {
            "byteLength": 47432,
            "uri": "scene.bin"
        }
    ],
    "images": [
        {
            "uri": "textures/Material_35_baseColor.png"
        }
    ],
    "materials": [
        {
            "doubleSided": true,
            "name": "Material_35",
            "pbrMetallicRoughness": {
                "baseColorTexture": {
                    "index": 0
                },
                "metallicFactor": 0.0,
                "roughnessFactor": 0.6
            }
        }
    ],
    "meshes": [
        {
            "name": "apple_low_obj_Material #35_0",
            "primitives": [
                {
                    "attributes": {
                        "NORMAL": 1,
                        "POSITION": 0,
                        "TEXCOORD_0": 2
                    },
                    "indices": 3,
                    "material": 0,
                    "mode": 4
                }
            ]
        }
    ],
    "nodes": [
        {
            "children": [1],
            "matrix": [
                1.0, 0.0, 0.0, 0.0, 0.0, 2.220446049250313e-16, -1.0, 0.0, 0.0,
                1.0, 2.220446049250313e-16, 0.0, 0.0, 0.0, 0.0, 1.0
            ],
            "name": "Sketchfab_model"
        },
        {
            "children": [2],
            "matrix": [
                1.0, 0.0, 0.0, 0.0, 0.0, 0.0, 1.0, 0.0, 0.0, -1.0, 0.0, 0.0,
                0.0, 0.0, 0.0, 1.0
            ],
            "name": "0f18034188d0404782c83fbb08d8d4f7.fbx"
        },
        {
            "children": [3],
            "name": "RootNode"
        },
        {
            "children": [4],
            "matrix": [
                1.0, 0.0, 0.0, 0.0, 0.0, 2.220446049250313e-16, -1.0, 0.0, 0.0,
                1.0, 2.220446049250313e-16, 0.0, 13.749883651733398,
                39.752479553222656, 6.189178466796875, 1.0
            ],
            "name": "HeroObjectGroup"
        },
        {
            "children": [5],
            "matrix": [
                1.0, 0.0, 0.0, 0.0, 0.0, 1.0, 0.0, 0.0, 0.0, 0.0, 1.0, 0.0,
                -13.564002990722656, 3.7106456756591797, -4.175273895263672, 1.0
            ],
            "name": "apple_low_obj"
        },
        {
            "mesh": 0,
            "name": "apple_low_obj_Material #35_0"
        }
    ],
    "samplers": [
        {
            "magFilter": 9729,
            "minFilter": 9987,
            "wrapS": 10497,
            "wrapT": 10497
        }
    ],
    "scene": 0,
    "scenes": [
        {
            "name": "Sketchfab_Scene",
            "nodes": [0]
        }
    ],
    "textures": [
        {
            "sampler": 0,
            "source": 0
        }
    ]
}
